<svg width="332" height="66" viewBox="0 0 332 66" fill="none" xmlns="http://www.w3.org/2000/svg">
<path d="M17.615 65V13.405H0.36V2.1H47.535V13.405H30.195V65H17.615ZM54.4127 12.64C53.2227 12.64 52.6277 12.0733 52.6277 10.94V2.61C52.6277 1.42 53.2227 0.824995 54.4127 0.824995H64.1027C64.6127 0.824995 65.0094 0.994997 65.2927 1.335C65.576 1.675 65.7177 2.1 65.7177 2.61V10.94C65.7177 12.0733 65.1794 12.64 64.1027 12.64H54.4127ZM52.8827 65V19.355H65.4627V65H52.8827ZM92.0438 65.51C89.2671 65.51 86.6888 65.1417 84.3088 64.405C81.9855 63.6683 79.9738 62.45 78.2738 60.75C76.5738 58.9933 75.2421 56.6417 74.2788 53.695C73.3721 50.6917 72.9188 46.9233 72.9188 42.39C72.9188 37.7433 73.3438 33.89 74.1938 30.83C75.0438 27.77 76.2905 25.3617 77.9338 23.605C79.6338 21.7917 81.7021 20.5167 84.1388 19.78C86.5755 19.0433 89.3238 18.675 92.3838 18.675C95.1605 18.675 97.7955 18.845 100.289 19.185C102.839 19.4683 105.502 20.0067 108.279 20.8V28.025H96.2938C93.6871 28.025 91.5905 28.4217 90.0038 29.215C88.4171 29.9517 87.2555 31.3683 86.5188 33.465C85.8388 35.505 85.4988 38.4517 85.4988 42.305C85.4988 46.1017 85.8388 48.9917 86.5188 50.975C87.2555 52.9583 88.4171 54.29 90.0038 54.97C91.6471 55.65 93.8005 55.99 96.4638 55.99H108.959V63.13C107.542 63.5833 105.899 64.0083 104.029 64.405C102.159 64.745 100.175 65 98.0788 65.17C96.0388 65.3967 94.0271 65.51 92.0438 65.51Z" fill="#EF6525"/>
<path d="M133.188 45.45V35.25H159.198V45.45H133.188Z" fill="#3DB3AD"/>
<path d="M186.79 65.51C183.106 65.51 179.848 65.085 177.015 64.235C174.238 63.385 171.858 61.8267 169.875 59.56C167.948 57.2933 166.475 54.0633 165.455 49.87C164.491 45.62 164.01 40.1233 164.01 33.38C164.01 26.8633 164.52 21.5367 165.54 17.4C166.616 13.2067 168.146 9.97667 170.13 7.71C172.113 5.38666 174.521 3.77166 177.355 2.865C180.188 1.95833 183.39 1.505 186.96 1.505C189.793 1.505 192.428 1.675 194.865 2.015C197.358 2.29833 199.596 2.66666 201.58 3.12C203.563 3.51666 205.235 3.97 206.595 4.48V14.255C205.575 14.0283 204.186 13.8017 202.43 13.575C200.73 13.3483 198.775 13.1783 196.565 13.065C194.355 12.895 192.031 12.81 189.595 12.81C187.215 12.81 185.175 13.0933 183.475 13.66C181.831 14.17 180.5 15.1617 179.48 16.635C178.516 18.0517 177.78 20.12 177.27 22.84C176.816 25.56 176.59 29.1017 176.59 33.465C176.59 37.6583 176.788 41.115 177.185 43.835C177.638 46.555 178.346 48.68 179.31 50.21C180.273 51.6833 181.576 52.7317 183.22 53.355C184.92 53.9217 187.045 54.205 189.595 54.205C193.901 54.205 197.386 54.12 200.05 53.95C202.77 53.78 204.951 53.5817 206.595 53.355V63.045C205.065 63.555 203.308 64.0083 201.325 64.405C199.341 64.745 197.16 65 194.78 65.17C192.4 65.3967 189.736 65.51 186.79 65.51ZM213.984 65V0.144999H226.564V35.165H231.919L241.949 19.355H254.699L241.269 40.86L256.059 65H243.309L231.749 46.555H226.564V65H213.984ZM279.41 65.425C274.366 65.425 270.343 64.7733 267.34 63.47C264.336 62.11 262.155 59.73 260.795 56.33C259.491 52.93 258.84 48.2267 258.84 42.22C258.84 36.0433 259.463 31.255 260.71 27.855C261.956 24.455 264.053 22.075 267 20.715C269.946 19.355 273.941 18.675 278.985 18.675C283.518 18.675 287.145 19.1283 289.865 20.035C292.585 20.9417 294.54 22.5283 295.73 24.795C296.976 27.0617 297.6 30.2633 297.6 34.4C297.6 37.46 296.976 39.8967 295.73 41.71C294.54 43.4667 292.84 44.7417 290.63 45.535C288.42 46.2717 285.813 46.64 282.81 46.64H271.335C271.448 48.9633 271.788 50.8333 272.355 52.25C272.978 53.61 274.083 54.6017 275.67 55.225C277.313 55.7917 279.665 56.075 282.725 56.075H296.07V63.47C293.86 63.9233 291.423 64.3767 288.76 64.83C286.153 65.2267 283.036 65.425 279.41 65.425ZM271.165 39.16H281.535C283.235 39.16 284.481 38.82 285.275 38.14C286.068 37.46 286.465 36.2417 286.465 34.485C286.465 32.8417 286.21 31.5383 285.7 30.575C285.19 29.555 284.396 28.8467 283.32 28.45C282.243 27.9967 280.798 27.77 278.985 27.77C277.058 27.77 275.528 28.11 274.395 28.79C273.261 29.4133 272.44 30.5467 271.93 32.19C271.42 33.8333 271.165 36.1567 271.165 39.16ZM322.344 65C318.831 65 315.969 64.49 313.759 63.47C311.606 62.45 310.047 60.75 309.084 58.37C308.121 55.99 307.696 52.7883 307.809 48.765L308.234 29.47H301.094V21.395L308.659 19.355L310.359 6.605H320.304V19.355H331.014V29.47H320.304V48.68C320.304 49.9267 320.417 50.9467 320.644 51.74C320.871 52.5333 321.182 53.185 321.579 53.695C322.032 54.1483 322.542 54.4883 323.109 54.715C323.676 54.9417 324.242 55.0833 324.809 55.14L330.589 55.65V65H322.344Z" fill="#1D2D3F"/>
</svg>
